#tb 0: 1/25
#media_type 0: video
#codec_id 0: rawvideo
#dimensions 0: 720x576
#sar 0: 0/1
0,          0,          0,        1,   622080, 0x78efb628
0,          1,          1,        1,   622080, 0x641f2564
0,          2,          2,        1,   622080, 0x348f25c3
0,          3,          3,        1,   622080, 0x6afc485a
0,          4,          4,        1,   622080, 0xe949107f
0,          5,          5,        1,   622080, 0x171716e5
0,          6,          6,        1,   622080, 0x2985a01f
0,          7,          7,        1,   622080, 0xc5ddabd7
0,          8,          8,        1,   622080, 0xb4dd2b7f
0,          9,          9,        1,   622080, 0x6e75ba82
